<svg xmlns="http://www.w3.org/2000/svg" width="529.759" height="105.696" viewBox="0 0 529.759 105.696">
  <g id="Group_1" data-name="Group 1" transform="translate(-84 -419.006)">
    <path id="path44" d="M314.571-380.955c-.117.135-.227.251-.331.38a17.91,17.91,0,0,1-13.06,5.643,13.917,13.917,0,0,1-11.2-5.519q-4.234-5.542-4.244-15.657,0-10.856,4.148-16.825a12.915,12.915,0,0,1,11.151-5.961c2.336,0,3.969.391,4.888,1.169a11.74,11.74,0,0,1,2.123,3.819,4.38,4.38,0,0,0,4.253,3.087c2.257,0,3.395-1.135,3.395-3.407,0-1.976-1.244-3.643-3.716-4.988s-5.771-2.019-9.885-2.019q-11.254,0-18.377,6.495a24.456,24.456,0,0,0-8.6,18.84q0,11.512,6.476,17.885,6.476,6.39,17.953,6.391c.817,0,1.591-.035,2.347-.081l-.005.005c11.213-.423,13.8-8.856,13.8-8.856l-.724-.889c-.14.171-.276.325-.4.489" transform="translate(84 868.707)" fill="#332927"/>
    <path id="path46" d="M379.09-375.478a15.41,15.41,0,0,1-3.028-.848,3.76,3.76,0,0,1-2.167-1.959,14.457,14.457,0,0,1-.377-4.095v-24.737q0-6.9-4-10.405t-11.773-3.5q-10.98,0-17.051,8.816V-448c0-1.132-.384-1.7-1.157-1.7-1.692.424-3.38.809-5.072,1.171-.745.153-1.6.313-2.552.488l-8.839,1.4c-.035.011-.584.127-.259.484l2.043,2.2c4.479-.544,5.851,1.2,6.271,2.525a18.589,18.589,0,0,1,.221,3.192v55.856a13.888,13.888,0,0,1-.428,4.095,3.586,3.586,0,0,1-2.124,1.959,12.711,12.711,0,0,1-2.972.848c-1.424.292-2.137.713-2.137,1.279,0,.779.58,1.164,1.708,1.164,1.7-.131,3.243-.271,4.617-.405,1.391-.128,3.38-.2,6-.2.643,0,2.515.1,5.632.305s4.819.3,5.1.3c1.064,0,1.6-.315,1.6-.949,0-.708-.7-1.2-2.079-1.493a15.1,15.1,0,0,1-3.025-.848,3.748,3.748,0,0,1-2.183-1.959,15.129,15.129,0,0,1-.369-4.095v-20.06a15.6,15.6,0,0,1,3.987-10.939,12.456,12.456,0,0,1,9.5-4.348q9.984,0,9.992,11.249v24.1a13.631,13.631,0,0,1-.437,4.095,3.536,3.536,0,0,1-2.115,1.959,12.683,12.683,0,0,1-2.98.848c-1.413.292-2.119.713-2.119,1.279,0,.779.531,1.164,1.593,1.164,1.7-.131,3.255-.271,4.669-.405s3.432-.2,6.055-.2c.711,0,2.585.1,5.635.305s4.712.3,4.985.3c1.132,0,1.7-.315,1.7-.949,0-.708-.683-1.2-2.073-1.493" transform="translate(84 868.707)" fill="#332927"/>
    <path id="path48" d="M105.267-373.744a12.294,12.294,0,0,1-10.932-5.863Q90.5-385.463,90.5-396.212q0-10.658,4.144-16.771t10.62-6.127a12.963,12.963,0,0,1,11.264,5.8q4.035,5.8,4.034,16.665Q120.565-373.748,105.267-373.744Zm10.146-45.739a24.469,24.469,0,0,0-9.287-1.751,25.741,25.741,0,0,0-18.378,7.128A23.354,23.354,0,0,0,80.2-396.428q0,10.854,7.279,17.829t18.324,6.976a23.865,23.865,0,0,0,17.634-7.455,26.519,26.519,0,0,0,5.527-8.3,24.53,24.53,0,0,0,1.913-9.581q0-9.576-7.649-17.244a23.7,23.7,0,0,0-7.813-5.277" transform="translate(84 868.707)" fill="#332927"/>
    <path id="path50" d="M192-375.447a16.129,16.129,0,0,1-3.025-.848,3.769,3.769,0,0,1-2.176-1.969,15.065,15.065,0,0,1-.369-4.088V-407.1q0-6.91-4.04-10.519t-11.683-3.612q-11.256,0-17.529,10.088c-.145-1.837-.315-4.033-.524-6.58s-.853-3.829-1.916-3.829a25.141,25.141,0,0,0-3.241,1.063,47.332,47.332,0,0,1-6.852,1.857q-3.936.8-3.933,1.648c0,.5.705.839,2.128,1.013a10.185,10.185,0,0,1,2.975.688,4.038,4.038,0,0,1,2.073,2.443,19.264,19.264,0,0,1,.479,5v25.492a13.433,13.433,0,0,1-.431,4.088,3.582,3.582,0,0,1-2.121,1.969,13.232,13.232,0,0,1-2.975.848c-1.423.279-2.128.7-2.128,1.273,0,.783.531,1.168,1.6,1.168,1.7-.145,3.257-.28,4.669-.424s3.441-.211,6.057-.211c.708,0,2.593.105,5.632.319s4.708.316,5,.316c1.129,0,1.693-.316,1.693-.957,0-.707-.689-1.205-2.065-1.484a16.045,16.045,0,0,1-3.032-.848,3.772,3.772,0,0,1-2.172-1.969,14.8,14.8,0,0,1-.379-4.088v-20.081a15.734,15.734,0,0,1,3.933-10.937,12.291,12.291,0,0,1,9.451-4.355q9.986,0,9.992,11.26v24.113a13.935,13.935,0,0,1-.424,4.088,3.635,3.635,0,0,1-2.128,1.969,13.161,13.161,0,0,1-2.976.848q-2.124.418-2.121,1.273c0,.783.565,1.168,1.7,1.168,1.7-.145,3.24-.28,4.624-.424s3.38-.211,6-.211q.952,0,5.632.319c3.116.211,4.808.316,5.1.316,1.059,0,1.589-.316,1.589-.957,0-.707-.685-1.205-2.073-1.484" transform="translate(84 868.707)" fill="#332927"/>
    <path id="path52" d="M229.451-393.187a9.408,9.408,0,0,1-7.969,3.819,8.948,8.948,0,0,1-7.7-3.977q-2.816-3.986-2.809-11,0-6.686,2.92-10.728a8.789,8.789,0,0,1,7.384-4.036,9.6,9.6,0,0,1,8.123,3.88q2.93,3.872,2.921,11.095,0,7.12-2.865,10.948Zm18.9-33.136L243.6-429.45q-2.1,1.748-3.993,3.072t-3.873,2.456q-2.046,1.2-4.239,2.225c-.045.02-.091.041-.144.068a11.7,11.7,0,0,1-5.443.719c-.375-.061-.765-.116-1.149-.16-.009,0-.015,0-.02-.005v.005a23.7,23.7,0,0,0-2.829-.164q-8.6,0-14.241,4.9a15.652,15.652,0,0,0-5.627,12.331,15,15,0,0,0,3.081,9.367,18.549,18.549,0,0,0,8.609,6.063q-9.888,1.9-9.877,9.54a7.787,7.787,0,0,0,4.457,7.476q4.458,2.268,13.492,2.275,9.99,0,14.124,2.072t4.144,8.235a10.77,10.77,0,0,1-4.249,9.021q-4.248,3.3-11.893,3.3-7.972,0-12.432-2.975a9.153,9.153,0,0,1-4.464-7.968,10.191,10.191,0,0,1,1.391-5.632,8.423,8.423,0,0,1,3.289-3.081c0-.987-1.208-1.487-3.609-1.487a7.369,7.369,0,0,0-5.531,2.656,8.835,8.835,0,0,0-2.437,6.167q0,6.582,6.211,10.777t16.52,4.2q11.36,0,17.789-4.947a16.011,16.011,0,0,0,6.431-13.431q0-8.824-5.632-12.7T223.5-378.952q-14.552,0-14.549-3.465,0-2.72,3.185-3.773a34.012,34.012,0,0,1,9.875-1.053q9.678,0,14.556-4.261t4.887-12.156a18.161,18.161,0,0,0-3.7-10.649,12.807,12.807,0,0,0-1.905-2.047l-.025.015a20.21,20.21,0,0,0-4.505-2.885c.489-.116.965-.221,1.405-.329,1.567-.389,3.025-.776,4.393-1.179,1.4-.395,2.8-.853,4.2-1.379s2.987-1.157,4.748-1.921l1.617-.24c.8-.12,1.259-.385,1.383-.78s-.124-.821-.713-1.267" transform="translate(84 868.707)" fill="#332927"/>
    <path id="path54" d="M73.3-403.172q-.962,0-12.321.635-4.254,0-7.279-.216c-2.013-.135-3.664-.279-4.937-.419-1.634,0-2.443.389-2.443,1.163,0,.635.9,1.109,2.707,1.423a25.37,25.37,0,0,1,3.239.695q3.724,1.37,3.72,8.044,0,9-4.459,13.231-4.477,4.23-14.023,4.228-11.377,0-17.9-8.856t-6.538-24.869q0-17.712,6.643-26.785,6.626-9.072,19.5-9.072,14.866,0,20.175,14.879a19.7,19.7,0,0,1,.953,3.131c.285,1.241.68,1.86,1.175,1.86.639,0,.953-.423.953-1.272l.46-11.273h0l.371-7.943-2.01-.635a8.324,8.324,0,0,1-1.232,3.8,1.7,1.7,0,0,1-1.932.291q-4.4-1.642-8.721-3.36a40.814,40.814,0,0,0-11.79-1.593q-16.677,0-27.141,10.975T0-406.636q0,15.068,9.561,24.724,10.087,10.288,25.708,10.289a37.311,37.311,0,0,0,14.339-2.84q4.988-2.406,9.985-4.935a16.532,16.532,0,0,1,3.669-1.157,22.982,22.982,0,0,1,4.51-.419c-.212-1.629-.357-2.977-.426-4.036s-.105-2.551-.105-4.461v-1.171a26.376,26.376,0,0,1,.474-5.895,4.428,4.428,0,0,1,1.911-2.761,12.414,12.414,0,0,1,3.566-1.433c1.412-.353,2.122-.813,2.122-1.384,0-.708-.674-1.057-2.018-1.057" transform="translate(84 868.707)" fill="#332927"/>
    <path id="path26" d="M476.693-413.024c-1.277-.893.235-2.712,0-3.837.384-1.951,6.245-1.359,7.907-1.359,1.425.373,2.929,0,4.513.373.6-.293,1.883.085,1.953-.823-.451-1.2-1.649-1.125-2.628-1.357-4.071.155-8.2.08-12.416.232h-2.115a97.276,97.276,0,0,1-13.3-.377c-.836.377-2.416.449-2.265,1.812a1.132,1.132,0,0,0,.448.14,3.276,3.276,0,0,0,1.664.156c3.38.676,9.549-.225,12.789.217a3.724,3.724,0,0,1,.6,1.961c.065.827.065,2.408-.6,2.861-2.183-.225-9.633-.6-11.893.449a11.15,11.15,0,0,0-5.711.531,1.3,1.3,0,0,0,.673,1.809c1.879.22,6.844-.836,9.327-.609,1.955-.519,5.643,0,8.271.073a10.177,10.177,0,0,0,2.416-.229c2.183-.363,13.169.381,14.893,0a1.053,1.053,0,0,0,.451-1.2c-.369-.9-12.417-1.2-14.975-.828" transform="translate(84 868.707)" fill="#c41b31"/>
    <path id="path28" d="M514.715-414.73a4.611,4.611,0,0,0,.256,1.4c.173.527.257.963.44,1.492.088.433.263.788.34,1.144a5.9,5.9,0,0,0,1.057.689,4.917,4.917,0,0,0,1.477.441c.533.087,1.063.087,1.5.179a4.6,4.6,0,0,1,1.219.169v.692a3.573,3.573,0,0,0,.093.443c.087.184.087.263.18.352.175.175.339.265.521.437l.176-.085.967-.352c.081-.7.177-1.312.257-2.005a1.311,1.311,0,0,0,.519.171,1.533,1.533,0,0,0,.885,0c.352,0,.691-.087.961-.087a2.235,2.235,0,0,1,.695-.084c.436,0,.885-.357,1.4-.884a6.42,6.42,0,0,0,1.311-2.712,7.8,7.8,0,0,0,.525-3.323,15.191,15.191,0,0,0-.177-2.445c-.175-.181-.255-.353-.348-.441a.4.4,0,0,0-.264-.175.406.406,0,0,0-.435,0c-.091,0-.263.084-.352.084s-.173.091-.26.091a9.155,9.155,0,0,0-.341.956c-.093.355-.175.62-.271.973.1.524.177.957.271,1.488a6.4,6.4,0,0,1-.539,1.835c-1.309,2.883-2.527,1.92-3.839,1.484v-6.736a.666.666,0,0,0-.448-.175c-.083-.084-.257-.084-.519-.084v.084c-.255,0-.443.084-.609.084s-.268.091-.361.091c-.081.26-.081.7-.167,1.229,0,.437-.091,1.04-.091,1.756a14,14,0,0,0-.169,1.912c-.089.528-.089,1.839-.177,2.192-1.147.7-2.805.961-3.5-2.107,0-.251-.087-.427-.087-.6v-3.423a10.61,10.61,0,0,0-.783-.956h-1.4v1.576a2.579,2.579,0,0,0-.092.877v.867c0,.179.092.437.092.624a3.467,3.467,0,0,0,.091.869" transform="translate(84 868.707)" fill="#c41b31"/>
    <path id="path30" d="M498.957-399.763a4.026,4.026,0,0,0,2.011-.524c.531-.188.96-.275,1.4-.44v-.089a20.492,20.492,0,0,0,2.456-.964,17.275,17.275,0,0,1,2.967-1.136c1.757-.7,3.593-1.927,5.6-2.193,1.487-.167,4.632,1.4,5.953,2.011.877.447,1.747.877,2.624,1.319,1.224.527,2.365,1.141,3.589,1.755a7.011,7.011,0,0,0,2.1.424,11.83,11.83,0,0,0,1.836-.083c0-3.059-.08-2.1-3.58-3.492a41.215,41.215,0,0,0-3.941-1.841.637.637,0,0,0-.443-.179q-2.35-.91-4.189-1.573c-1.235-.525-3.153-.963-3.945-1.4-.877.272-1.487.615-2.883,1.145a47.677,47.677,0,0,0-4.464,1.831c-.349.179-.789.353-1.224.523-1.323.451-2.456.963-3.5,1.324a33.209,33.209,0,0,1-3.331,1.128,9.809,9.809,0,0,0-.519.968c-.088,1.307-.609,1.144,1.485,1.491" transform="translate(84 868.707)" fill="#c41b31"/>
    <path id="path32" d="M528.7-373.606a8.133,8.133,0,0,1-5.247-5.161,14.815,14.815,0,0,0-1.224-2.277c-.089-.168-.169-.344-.261-.523a19.617,19.617,0,0,1-1.052-2.629c-.345-1.22-.607-2.18-.872-3.051-.175-.884-.356-1.583-.445-2.1a2.054,2.054,0,0,1-.352-.272c-.167-.092-.255-.092-.432-.172h-.7c-.167.444-.435.875-.62,1.311v1.4a21.627,21.627,0,0,1,.525,2.184c.259.959.792,2.188,1.224,3.412a23.656,23.656,0,0,0,1.235,2.975c.516.884.964,1.664,1.4,2.273l.088.088c.436.443.879.965,1.407,1.585a9.268,9.268,0,0,0,2.089,1.916,5.453,5.453,0,0,0,2.1,1.231,3.382,3.382,0,0,0,1.575.083.314.314,0,0,1,.095-.263c0-.081.08-.167.08-.347.1-.083.177-.172.267-.172.088-.093.088-.093.176-.093a2.722,2.722,0,0,0-1.055-1.4" transform="translate(84 868.707)" fill="#c41b31"/>
    <path id="path34" d="M500.439-410.095a4.592,4.592,0,0,0,2.016.441,8.861,8.861,0,0,1,1.4-.084c.093.872.181,1.653.271,2.443h.779c.268-.085.356-.172.531-.172a1.259,1.259,0,0,0,.355-.265v-1.043c.075-.173.075-.444.167-.613,0-.179.093-.265.093-.349a4.85,4.85,0,0,1,1.221-.089,7.668,7.668,0,0,0,1.753-.268,4.962,4.962,0,0,0,1.752-.959,11.894,11.894,0,0,0,1.4-1.669v-3.321a11.224,11.224,0,0,0-.091-1.832,5.308,5.308,0,0,0-.259-1.225,1.918,1.918,0,0,0-.263-.441h-.784a2.033,2.033,0,0,0-.525.441v3.937c-.36.519-.62,1.047-.876,1.487-1.757,2.185-1.489.433-3.325.523v-1.491a12.62,12.62,0,0,1-.093-1.912c-.092-.716-.092-1.319-.167-1.756v-1.229a.952.952,0,0,0-.529-.175.678.678,0,0,0-.435-.084s-.093,0-.093.084a3.076,3.076,0,0,0-.519.084c-.177,0-.265.091-.359.091a6.285,6.285,0,0,1-.081,1.14,10.129,10.129,0,0,1-.091,1.568c0,.533-.087,1.049-.087,1.491v1.227c.087.268.177.608.259.963-2.011,1.057-2.975,1.135-3.847-1.575a6.3,6.3,0,0,1-.529-1.751,11.887,11.887,0,0,0-.173-1.833,3.365,3.365,0,0,0-.433-1.229c-.085,0-.085-.091-.169-.091s-.271-.084-.351-.084c-.18-.084-.271-.084-.36,0-.083,0-.172.084-.265.175,0,.175-.081.521-.081.78a5.186,5.186,0,0,0-.08,1.149,5.063,5.063,0,0,0-.092,1.133v2.363a13.9,13.9,0,0,0,1.133,2.36,4.721,4.721,0,0,0,1.833,1.663" transform="translate(84 868.707)" fill="#c41b31"/>
    <path id="path36" d="M482.647-396.922c-2.859,0-5.569,0-8.435.22-.077,0-.145-.071-.3-.071-1.269-.149-6.693.071-7.669.669-.751-.519-.521-1.727-.825-2.628-.152-1.279,1.279-.829,1.952-1.123.827.527,3.693.445,6.543.293,3.085-.224,6.176-.677,6.705-.677a1.356,1.356,0,0,1,2.033.384c0,.973.748,2.024,0,2.932Zm-1.736,6.619c-1.505,0-2.633,1.135-4.133,1.276a8.917,8.917,0,0,1-2.869.305,7.831,7.831,0,0,1-2.925-.305c-1.58.6-2.711-.681-3.768-1.805-.145-.9-1.128-2.4-.976-3.384,2.112-.823,5.192-.144,7.669-.377a7.628,7.628,0,0,0,1.583-.305c1.437.759,6.925.075,7.448,0-.523,1.428.084,4.527-2.028,4.6Zm-13.319-15.576c1.961.076,4.057-.381,6.316-.22h.159c2.56.145,5.416-.077,7.9.073a4.682,4.682,0,0,0,.517.747,21.835,21.835,0,0,1,.161,3.239c-1.057.455-2.189-.153-3.164-.232-.976,0-3.385.232-5.575.455a15.264,15.264,0,0,1-3.683.083c-.9.445-1.953-.148-3.011.375-.523-.457-1.347.524-1.8-.225-.677-1.891.973-3.308,2.179-4.293Zm15.876-1.352a3.708,3.708,0,0,0-3.985-.98,45.615,45.615,0,0,0-5.575-.153h-2.7c-1.135.38-4.44,0-5.948.457a9.149,9.149,0,0,0-2.025,8.5c-.915,2.863.744,9.485,2.779,11.743.372.069.979,1.125,2.56,1.125.6.229.979.376.9,1.8a64,64,0,0,0-1.807,6.624c-.675,1.276-1.205,3.381-2.031,4.288a3.139,3.139,0,0,0,.231,2.472c.448.08.675-.361.975-.361,2.175-3.387,3.083-7.379,3.911-11.292.456-1.136.073-1.649.985-2.563a3.132,3.132,0,0,1,2.169-.743c1.364-.153,3.02,0,3.845.743.975,3.252,1.12,6.7,2.7,9.716,1.2,1.505,1.057,4.06,3.164,4.58.456-.221-.3-.441,0-.748.68-2.409-1.136-4.212-1.885-6.165-.6-2.105-.969-4.445-1.652-6.469-.151-.913-.531-2.188.683-2.711,1.055-.448,2.4-.825,2.855-2.113,1.125-1.353.979-3.753,1.427-5.42a12.138,12.138,0,0,0,.675-5.481c-.295-2.335.451-5.88-2.255-6.851" transform="translate(84 868.707)" fill="#c41b31"/>
    <path id="path38" d="M507.791-389.791H507.1a.75.75,0,0,0-.356.08.716.716,0,0,0-.352.364c-.081.169-.175.261-.175.431a5.8,5.8,0,0,1-.169,1.136,23.686,23.686,0,0,1-1.224,4.731,12.211,12.211,0,0,1-1.229,2.624,15.634,15.634,0,0,1-2.181,3.24,14.287,14.287,0,0,1-2.983,2.179,16.326,16.326,0,0,1-1.839.964,2.153,2.153,0,0,1-.345.437v1.847a8.2,8.2,0,0,0,.877.429,1.443,1.443,0,0,0,.784-.172,2.911,2.911,0,0,0,1.132-.609c.532-.267.883-.532,1.311-.791.356-.264.617-.523.88-.7a23.363,23.363,0,0,0,2.187-2.539,20.235,20.235,0,0,0,1.407-1.576,15.532,15.532,0,0,0,1.131-1.74,23.5,23.5,0,0,0,1.661-4.473c.268-1.315.531-2.353.62-3.143v-2.271c-.089-.1-.089-.185-.177-.272s-.175-.092-.268-.172" transform="translate(84 868.707)" fill="#c41b31"/>
    <path id="path40" d="M521.972-391.634c.789,0,1.571-.084,2.191-.084a21.655,21.655,0,0,0,2.708-.344c5.159-1.759-.093-2.455-2.533-1.581h-3.688c-1.479,0-2.623-.084-3.661-.084a23.3,23.3,0,0,0-2.364-.093c0-.164.091-.521.091-.872.079-.439-.183-2.281-.183-2.791a8.95,8.95,0,0,0,.183-1.328,3.28,3.28,0,0,0,.079-.791c0-1.037.177-1.828-.079-2.26a2.057,2.057,0,0,0-1.757-1.055c-.347.08-.787.776-1.049,1.4a7.618,7.618,0,0,0,.083,2.368l.355,5.331c-2.1,0-4.987.445-7.521.349a6.261,6.261,0,0,0-1.229-.081,16.109,16.109,0,0,0-4.555-.175c-1.4.352-2.536,1.136.089,1.92.443,0,.877.173,1.664.173h11.2c-.083,5.875.089,11.733,0,17.591v.965c0,.259.089.524.089.78.091.187.091.359.179.539a1.318,1.318,0,0,0,.352.257c.088.089.164.089.347.172h.7a2.8,2.8,0,0,0,.875-.429v-19.875a16.2,16.2,0,0,1,2.188-.084h3.765a9.273,9.273,0,0,0,1.487.084" transform="translate(84 868.707)" fill="#c41b31"/>
    <path id="path42" d="M417.814-384.983q0,3.534-3.984,6.425a13.974,13.974,0,0,1-8.341,2.9,6.591,6.591,0,0,1-5.2-2.143,8.344,8.344,0,0,1-1.92-5.791q0-8.78,19.443-16.392Zm16.891,6.768a5.557,5.557,0,0,0-1.757,1.065,4.523,4.523,0,0,1-2.6,1.064q-3.5,0-3.5-5.753v-27.044q0-12.248-18.271-12.243-8.606,0-13.489,2.551-4.9,2.546-4.893,6.265,0,3.934,3.719,3.929,2.554,0,3.509-1.487a13.8,13.8,0,0,0,1.06-4.04q.638-5.1,9.136-5.092,10.2,0,10.2,8.312v8.433q-29.32,10.68-29.317,20.913a9.047,9.047,0,0,0,2.917,7.1,11.442,11.442,0,0,0,7.919,2.615,25.439,25.439,0,0,0,18.161-7.545,9.313,9.313,0,0,0,3.3,5.5,9.38,9.38,0,0,0,6.052,2.048,9.889,9.889,0,0,0,6.1-2.052q2.71-2.052,2.711-3.571a.851.851,0,0,0-.953-.969" transform="translate(84 868.707)" fill="#332927"/>
  </g>
</svg>
